<svg width="20" height="20" viewBox="0 0 20 20" fill="none" xmlns="http://www.w3.org/2000/svg">
<path d="M10 20C15.5228 20 20 15.5228 20 10C20 4.47715 15.5228 0 10 0C4.47715 0 0 4.47715 0 10C0 15.5228 4.47715 20 10 20Z" fill="#26A17B"/>
<path fill-rule="evenodd" clip-rule="evenodd" d="M11.2013 10.8645V10.8632C11.1325 10.8682 10.7781 10.8895 9.9875 10.8895C9.35625 10.8895 8.91187 10.8707 8.75562 10.8632V10.8651C6.32562 10.7582 4.51187 10.3351 4.51187 9.82884C4.51187 9.32321 6.32562 8.90009 8.75562 8.79134V10.4438C8.91437 10.4551 9.36937 10.482 9.99812 10.482C10.7525 10.482 11.1306 10.4507 11.2013 10.4445V8.79259C13.6263 8.90071 15.4356 9.32384 15.4356 9.82884C15.4356 10.3351 13.6263 10.757 11.2013 10.8645ZM11.2013 8.62071V7.14196H14.585V4.88696H5.37188V7.14196H8.75562V8.62009C6.00562 8.74634 3.9375 9.29134 3.9375 9.94384C3.9375 10.5963 6.00562 11.1407 8.75562 11.2676V16.0063H11.2013V11.2663C13.9469 11.1401 16.01 10.5957 16.01 9.94384C16.01 9.29196 13.9469 8.74759 11.2013 8.62071Z" fill="white"/>
</svg>
